<svg xmlns="http://www.w3.org/2000/svg" viewBox="0 0 1200 675" width="1200" height="675">
  <defs>
    <linearGradient id="amzBg" x1="0%" y1="0%" x2="100%" y2="100%">
      <stop offset="0%" stop-color="#131921"/>
      <stop offset="50%" stop-color="#232f3e"/>
      <stop offset="100%" stop-color="#0f1111"/>
    </linearGradient>
  </defs>
  <rect width="1200" height="675" fill="url(#amzBg)"/>
  <g transform="translate(100, 120)">
    <rect width="1000" height="435" rx="16" fill="rgba(19, 25, 33, 0.9)" stroke="rgba(255, 153, 0, 0.3)" stroke-width="1.5"/>
    <rect x="50" y="45" width="160" height="32" rx="16" fill="rgba(255, 153, 0, 0.15)" stroke="#ff9900" stroke-width="1"/>
    <text x="66" y="66" fill="#ff9900" font-family="system-ui, sans-serif" font-size="12" font-weight="700">WEB DEVELOPMENT</text>
    <text x="50" y="135" fill="#ffffff" font-family="system-ui, sans-serif" font-size="44" font-weight="800">E-Commerce Web Clone</text>
    <text x="50" y="175" fill="#eaeded" font-family="system-ui, sans-serif" font-size="20">Amazon UI Replication &amp; Shopping Experience</text>
    <text x="50" y="225" fill="#aab7b8" font-family="system-ui, sans-serif" font-size="16">
      Responsive frontend interface featuring product grid, multi-category navigation, cart management UI and clean layout.
    </text>
    <g transform="translate(50, 275)">
      <rect x="0" y="0" width="100" height="32" rx="6" fill="#232f3e"/>
      <text x="20" y="21" fill="#ff9900" font-family="system-ui, sans-serif" font-size="14" font-weight="600">JavaScript</text>
      <rect x="115" y="0" width="80" height="32" rx="6" fill="#232f3e"/>
      <text x="135" y="21" fill="#ff9900" font-family="system-ui, sans-serif" font-size="14" font-weight="600">HTML5</text>
      <rect x="210" y="0" width="80" height="32" rx="6" fill="#232f3e"/>
      <text x="230" y="21" fill="#ff9900" font-family="system-ui, sans-serif" font-size="14" font-weight="600">CSS3</text>
      <rect x="305" y="0" width="120" height="32" rx="6" fill="#232f3e"/>
      <text x="320" y="21" fill="#ff9900" font-family="system-ui, sans-serif" font-size="14" font-weight="600">Responsive UI</text>
    </g>
    <path d="M50,350 Q200,380 350,350" fill="none" stroke="#ff9900" stroke-width="4" stroke-linecap="round"/>
    <polygon points="350,350 335,340 338,355" fill="#ff9900"/>
  </g>
</svg>
